STARTFONT 2.1
FONT -Adobe-Palatino-Medium-I-Normal--25-180-100-100-P-129-ISO8859-1
SIZE 18 100 100
FONTBOUNDINGBOX 30 24 -4 -6

STARTPROPERTIES 26
_DEC_DEVICE_FONTNAMES "PS=Palatino-Italic"
FONTNAME_REGISTRY ""
FAMILY_NAME "Palatino"
FOUNDRY "Adobe"
WEIGHT_NAME "Medium"
SLANT "I"
SETWIDTH_NAME "Normal"
ADD_STYLE_NAME ""
PIXEL_SIZE 25
POINT_SIZE 180
RESOLUTION_X 100
RESOLUTION_Y 100
SPACING "P"
AVERAGE_WIDTH 129
CHARSET_REGISTRY "ISO8859"
CHARSET_ENCODING "1"
CHARSET_COLLECTIONS "ASCII ISO8859-1 ADOBE-STANDARD"
FULL_NAME "Palatino Italic"
COPYRIGHT "Copyright (c) 1991 Adobe Systems, Inc."
CAP_HEIGHT 18
X_HEIGHT 12
WEIGHT 10
QUAD_WIDTH 15
DEFAULT_CHAR 0
FONT_DESCENT 6
FONT_ASCENT 18
ENDPROPERTIES

CHARS 190

STARTCHAR space
ENCODING 32
SWIDTH 250 0
DWIDTH 6 0
BBX 1 1 0 0
BITMAP
00
ENDCHAR

STARTCHAR exclam
ENCODING 33
SWIDTH 333 0
DWIDTH 8 0
BBX 5 18 1 0
BITMAP
18
18
18
18
10
30
30
30
30
20
60
60
60
60
00
C0
C0
C0
ENDCHAR

STARTCHAR quotedbl
ENCODING 34
SWIDTH 500 0
DWIDTH 12 0
BBX 6 7 3 11
BITMAP
44
44
44
CC
88
88
88
ENDCHAR

STARTCHAR numbersign
ENCODING 35
SWIDTH 606 0
DWIDTH 12 0
BBX 13 17 0 0
BITMAP
0C60
0C60
0C60
0C60
0C60
7FF8
18C0
18C0
18C0
18C0
18C0
FFF0
3180
3180
3180
3180
3180
ENDCHAR

STARTCHAR dollar
ENCODING 36
SWIDTH 500 0
DWIDTH 12 0
BBX 10 20 1 -2
BITMAP
0100
0FC0
3AC0
3240
6200
6200
6400
7400
3C00
1F00
0B80
0980
0980
0980
1180
9300
D700
FC00
2000
2000
ENDCHAR

STARTCHAR percent
ENCODING 37
SWIDTH 889 0
DWIDTH 18 0
BBX 16 19 1 -1
BITMAP
1C30
3250
63B0
6220
C260
C440
C4C0
C880
7180
010E
0319
0231
0631
0461
0C62
0862
1864
1038
1000
ENDCHAR

STARTCHAR ampersand
ENCODING 38
SWIDTH 778 0
DWIDTH 21 0
BBX 19 18 1 0
BITMAP
01F000
063000
0C2000
180000
180000
180000
0C0000
078020
1F0020
707FC0
607C00
C08E00
C00600
C00600
C00C00
E01800
707000
1FC000
ENDCHAR

STARTCHAR quoteright
ENCODING 39
SWIDTH 278 0
DWIDTH 7 0
BBX 3 6 2 12
BITMAP
60
60
60
40
C0
80
ENDCHAR

STARTCHAR parenleft
ENCODING 40
SWIDTH 333 0
DWIDTH 9 0
BBX 8 21 1 -3
BITMAP
01
06
0C
18
18
30
30
60
60
60
C0
C0
C0
C0
C0
C0
C0
60
60
30
18
ENDCHAR

STARTCHAR parenright
ENCODING 41
SWIDTH 333 0
DWIDTH 8 0
BBX 8 21 -1 -3
BITMAP
18
0C
06
06
03
03
03
03
03
03
03
06
06
06
0C
0C
18
18
30
60
80
ENDCHAR

STARTCHAR asterisk
ENCODING 42
SWIDTH 389 0
DWIDTH 10 0
BBX 8 8 1 10
BITMAP
0C
CC
C8
3B
3F
C8
CC
0C
ENDCHAR

STARTCHAR plus
ENCODING 43
SWIDTH 606 0
DWIDTH 15 0
BBX 12 11 1 2
BITMAP
0600
0600
0600
0600
0600
FFF0
0600
0600
0600
0600
0600
ENDCHAR

STARTCHAR comma
ENCODING 44
SWIDTH 250 0
DWIDTH 6 0
BBX 3 6 -1 -3
BITMAP
60
60
60
40
C0
80
ENDCHAR

STARTCHAR minus
ENCODING 45
SWIDTH 606 0
DWIDTH 15 0
BBX 12 1 1 7
BITMAP
FFF0
ENDCHAR

STARTCHAR period
ENCODING 46
SWIDTH 250 0
DWIDTH 6 0
BBX 2 3 0 0
BITMAP
C0
C0
C0
ENDCHAR

STARTCHAR slash
ENCODING 47
SWIDTH 296 0
DWIDTH 7 0
BBX 5 21 1 -3
BITMAP
08
08
08
08
18
10
10
10
30
20
20
20
60
40
40
40
C0
80
80
80
80
ENDCHAR

STARTCHAR zero
ENCODING 48
SWIDTH 500 0
DWIDTH 12 0
BBX 10 18 1 0
BITMAP
0F00
1980
30C0
30C0
60C0
60C0
60C0
C0C0
C0C0
C0C0
C0C0
C180
C180
C180
C300
C300
6600
3C00
ENDCHAR

STARTCHAR one
ENCODING 49
SWIDTH 500 0
DWIDTH 12 0
BBX 7 18 2 0
BITMAP
06
0E
36
66
46
06
0C
0C
0C
0C
0C
0C
18
18
18
18
18
FE
ENDCHAR

STARTCHAR two
ENCODING 50
SWIDTH 500 0
DWIDTH 12 0
BBX 10 18 1 0
BITMAP
0700
1F80
31C0
20C0
00C0
00C0
0080
0180
0100
0300
0200
0400
0800
1000
2000
4040
FFC0
FF80
ENDCHAR

STARTCHAR three
ENCODING 51
SWIDTH 500 0
DWIDTH 12 0
BBX 10 18 1 0
BITMAP
0F80
31C0
20C0
00C0
00C0
0080
0100
1E00
0380
01C0
00C0
00C0
00C0
0180
0180
8300
C600
F800
ENDCHAR

STARTCHAR four
ENCODING 52
SWIDTH 500 0
DWIDTH 12 0
BBX 9 18 1 0
BITMAP
0380
0580
0580
0980
0980
1180
1300
2300
2300
4300
4300
8300
FF80
0600
0600
0600
0600
1F80
ENDCHAR

STARTCHAR five
ENCODING 53
SWIDTH 500 0
DWIDTH 12 0
BBX 10 18 1 0
BITMAP
3FC0
3F80
2000
2000
2000
4000
5E00
6380
41C0
00C0
00C0
00C0
00C0
0180
0180
8300
C600
F800
ENDCHAR

STARTCHAR six
ENCODING 54
SWIDTH 500 0
DWIDTH 12 0
BBX 10 18 1 0
BITMAP
03C0
0C40
1800
3000
3000
6000
6000
6700
CF80
D1C0
E0C0
C0C0
C0C0
C0C0
C180
C180
6300
3C00
ENDCHAR

STARTCHAR seven
ENCODING 55
SWIDTH 500 0
DWIDTH 12 0
BBX 10 18 1 0
BITMAP
7FC0
FFC0
0080
0180
0100
0300
0200
0600
0400
0C00
0800
1800
1000
3000
3000
6000
6000
6000
ENDCHAR

STARTCHAR eight
ENCODING 56
SWIDTH 500 0
DWIDTH 12 0
BBX 10 18 1 0
BITMAP
0F00
1980
30C0
30C0
30C0
3080
1900
1F00
1E00
2700
6300
C180
C180
C180
C180
C100
E200
7C00
ENDCHAR

STARTCHAR nine
ENCODING 57
SWIDTH 500 0
DWIDTH 12 0
BBX 10 18 1 0
BITMAP
0F00
3180
60C0
60C0
C0C0
C0C0
C0C0
C1C0
E2C0
7CC0
3980
0180
0180
0300
0300
0600
8C00
F000
ENDCHAR

STARTCHAR colon
ENCODING 58
SWIDTH 250 0
DWIDTH 6 0
BBX 4 11 0 0
BITMAP
30
30
30
00
00
00
00
00
C0
C0
C0
ENDCHAR

STARTCHAR semicolon
ENCODING 59
SWIDTH 250 0
DWIDTH 6 0
BBX 5 14 -1 -3
BITMAP
18
18
18
00
00
00
00
00
60
60
60
40
C0
80
ENDCHAR

STARTCHAR less
ENCODING 60
SWIDTH 606 0
DWIDTH 15 0
BBX 13 13 1 0
BITMAP
0018
0078
01E0
0780
1E00
7800
E000
7800
1E00
0780
01E0
0078
0018
ENDCHAR

STARTCHAR equal
ENCODING 61
SWIDTH 606 0
DWIDTH 15 0
BBX 13 6 1 4
BITMAP
FFF8
0000
0000
0000
0000
FFF8
ENDCHAR

STARTCHAR greater
ENCODING 62
SWIDTH 606 0
DWIDTH 15 0
BBX 13 13 1 0
BITMAP
C000
F000
3C00
0F00
03C0
00F0
0038
00F0
03C0
0F00
3C00
F000
C000
ENDCHAR

STARTCHAR question
ENCODING 63
SWIDTH 500 0
DWIDTH 12 0
BBX 9 18 1 0
BITMAP
3F00
6380
4180
0180
0180
0300
0600
0C00
1800
3000
6000
6000
2000
0000
0000
C000
C000
C000
ENDCHAR

STARTCHAR at
ENCODING 64
SWIDTH 747 0
DWIDTH 19 0
BBX 17 18 1 0
BITMAP
03F000
0C0C00
100200
200100
41D900
463880
8C1880
8C3080
983080
983080
986100
986100
98E600
4F3800
400100
200200
180C00
07F000
ENDCHAR

STARTCHAR A
ENCODING 65
SWIDTH 722 0
DWIDTH 17 0
BBX 17 18 -2 0
BITMAP
003000
003000
007000
005800
00D800
009800
019800
011800
030C00
020C00
07FC00
040C00
0C0C00
080600
180600
100600
300600
FC1F80
ENDCHAR

STARTCHAR B
ENCODING 66
SWIDTH 611 0
DWIDTH 17 0
BBX 14 18 0 0
BITMAP
1FF8
061C
060C
060C
0C0C
0C0C
0C18
0C30
0FE0
1838
181C
180C
180C
300C
3018
3018
3070
FFC0
ENDCHAR

STARTCHAR C
ENCODING 67
SWIDTH 667 0
DWIDTH 15 0
BBX 15 18 0 0
BITMAP
01FE
0E0E
1804
3004
3000
6000
6000
6000
C000
C000
C000
C000
C000
C000
E000
600C
7838
1FE0
ENDCHAR

STARTCHAR D
ENCODING 68
SWIDTH 778 0
DWIDTH 20 0
BBX 19 18 -1 0
BITMAP
1FFF00
0603C0
0600C0
0600E0
0C0060
0C0060
0C0060
0C0060
0C0060
180060
1800C0
1800C0
1800C0
300180
300180
300300
300E00
FFF000
ENDCHAR

STARTCHAR E
ENCODING 69
SWIDTH 611 0
DWIDTH 15 0
BBX 14 18 0 0
BITMAP
1FFC
060C
0604
0604
0C00
0C00
0C00
0C00
0FF0
1800
1800
1800
1800
3000
3010
3010
3030
FFF0
ENDCHAR

STARTCHAR F
ENCODING 70
SWIDTH 556 0
DWIDTH 14 0
BBX 14 18 0 0
BITMAP
1FFC
060C
0604
0604
0C00
0C00
0C00
0C00
0FF0
1800
1800
1800
1800
3000
3000
3000
3000
FE00
ENDCHAR

STARTCHAR G
ENCODING 71
SWIDTH 722 0
DWIDTH 17 0
BBX 16 18 0 0
BITMAP
01FF
0E07
1802
3002
3000
6000
6000
6000
C000
C000
C01F
C006
C006
C00C
E00C
600C
783C
1FE0
ENDCHAR

STARTCHAR H
ENCODING 72
SWIDTH 778 0
DWIDTH 21 0
BBX 20 18 0 0
BITMAP
1F83F0
0600C0
0600C0
0600C0
0C0180
0C0180
0C0180
0C0180
0FFF80
180300
180300
180300
180300
300600
300600
300600
300600
FC1F80
ENDCHAR

STARTCHAR I
ENCODING 73
SWIDTH 333 0
DWIDTH 10 0
BBX 9 18 0 0
BITMAP
1F80
0600
0600
0600
0C00
0C00
0C00
0C00
0C00
1800
1800
1800
1800
1800
3000
3000
3000
FC00
ENDCHAR

STARTCHAR J
ENCODING 74
SWIDTH 333 0
DWIDTH 8 0
BBX 10 21 -1 -3
BITMAP
1FC0
0600
0600
0600
0C00
0C00
0C00
0C00
0C00
1800
1800
1800
1800
1800
3000
3000
3000
3000
2000
6000
C000
ENDCHAR

STARTCHAR K
ENCODING 75
SWIDTH 667 0
DWIDTH 17 0
BBX 17 18 0 0
BITMAP
1F8380
060600
060C00
063800
0C6000
0CC000
0D8000
0F0000
0D8000
19C000
18C000
186000
187000
303000
301800
301C00
300E00
FC0700
ENDCHAR

STARTCHAR L
ENCODING 76
SWIDTH 556 0
DWIDTH 13 0
BBX 12 18 0 0
BITMAP
1F80
0600
0600
0600
0C00
0C00
0C00
0C00
0C00
1800
1800
1800
1800
3000
3010
3010
3030
FFF0
ENDCHAR

STARTCHAR M
ENCODING 77
SWIDTH 944 0
DWIDTH 26 0
BBX 25 18 0 0
BITMAP
1F000F80
07000E00
07001E00
05801600
0D802C00
09804C00
09804C00
08C08C00
08C10C00
18C11800
10C21800
10641800
10641800
30683000
20703000
20303000
20203000
F820FC00
ENDCHAR

STARTCHAR N
ENCODING 78
SWIDTH 778 0
DWIDTH 21 0
BBX 20 18 0 0
BITMAP
1F01F0
070040
070040
078040
0580C0
0DC080
08C080
08E080
086080
187180
103100
103900
101900
101F00
300E00
200E00
200600
F80600
ENDCHAR

STARTCHAR O
ENCODING 79
SWIDTH 778 0
DWIDTH 18 0
BBX 17 18 0 0
BITMAP
01FC00
0E0F00
180300
300380
300180
600180
600180
600180
C00180
C00180
C00300
C00300
C00300
C00600
E00600
600C00
783800
1FC000
ENDCHAR

STARTCHAR P
ENCODING 80
SWIDTH 611 0
DWIDTH 14 0
BBX 15 18 -1 0
BITMAP
1FFC
060E
0606
0606
0C06
0C06
0C0C
0C0C
0C18
19E0
1800
1800
1800
3000
3000
3000
3000
FC00
ENDCHAR

STARTCHAR Q
ENCODING 81
SWIDTH 778 0
DWIDTH 18 0
BBX 17 23 0 -5
BITMAP
01FC00
0E0F00
180300
300380
300180
600180
600180
600180
C00180
C00180
C00300
C00300
C00300
C00600
E00600
600C00
783800
1FC000
1F0000
23C000
20F080
003F00
000E00
ENDCHAR

STARTCHAR R
ENCODING 82
SWIDTH 667 0
DWIDTH 17 0
BBX 16 18 0 0
BITMAP
1FF8
061C
060C
060C
0C0C
0C0C
0C18
0C30
0DC0
18C0
18E0
1860
1830
3038
3018
300C
300E
FC07
ENDCHAR

STARTCHAR S
ENCODING 83
SWIDTH 556 0
DWIDTH 12 0
BBX 11 18 0 0
BITMAP
07E0
1C60
3020
2000
6000
6000
6000
7000
7F00
1FC0
01C0
00C0
00C0
00C0
8080
8180
C700
FC00
ENDCHAR

STARTCHAR T
ENCODING 84
SWIDTH 611 0
DWIDTH 15 0
BBX 14 18 1 0
BITMAP
FFFC
C30C
8304
8304
0600
0600
0600
0600
0600
0C00
0C00
0C00
0C00
1800
1800
1800
1800
7E00
ENDCHAR

STARTCHAR U
ENCODING 85
SWIDTH 778 0
DWIDTH 20 0
BBX 18 18 1 0
BITMAP
7E0FC0
180300
180300
180300
300600
300600
300600
300600
600600
600C00
600C00
600C00
C00C00
C01800
C03800
C05800
E19800
7E1E00
ENDCHAR

STARTCHAR V
ENCODING 86
SWIDTH 722 0
DWIDTH 16 0
BBX 17 18 0 0
BITMAP
FC1F80
300600
300400
300C00
300800
301800
181000
183000
182000
186000
184000
0CC000
0C8000
0D8000
0D0000
0F0000
060000
040000
ENDCHAR

STARTCHAR W
ENCODING 87
SWIDTH 944 0
DWIDTH 24 0
BBX 25 18 0 0
BITMAP
FC0C0F80
300C0200
301C0600
301C0400
303C0C00
302C0800
306C1800
304C1000
18C63000
18862000
19866000
19064000
1B06C000
1A068000
1E078000
1C070000
0C030000
08020000
ENDCHAR

STARTCHAR X
ENCODING 88
SWIDTH 722 0
DWIDTH 18 0
BBX 16 18 0 0
BITMAP
3F1F
0C04
0E0C
0608
0718
0310
03B0
01A0
03E0
02C0
06E0
0460
0C70
0830
1838
1018
301C
FC3F
ENDCHAR

STARTCHAR Y
ENCODING 89
SWIDTH 667 0
DWIDTH 15 0
BBX 17 18 0 0
BITMAP
700180
F80380
180600
1C0800
0C1000
0E2000
064000
078000
038000
030000
030000
030000
030000
060000
060000
060000
060000
1F8000
ENDCHAR

STARTCHAR Z
ENCODING 90
SWIDTH 667 0
DWIDTH 17 0
BBX 16 18 0 0
BITMAP
1FFF
1806
100E
101C
0038
0070
0060
00C0
01C0
0380
0700
0E00
0C00
1800
3804
7004
E00C
FFFC
ENDCHAR

STARTCHAR bracketleft
ENCODING 91
SWIDTH 333 0
DWIDTH 8 0
BBX 7 21 1 -3
BITMAP
1E
18
18
18
18
30
30
30
30
30
30
60
60
60
60
60
C0
C0
C0
C0
F0
ENDCHAR

STARTCHAR backslash
ENCODING 92
SWIDTH 606 0
DWIDTH 15 0
BBX 10 18 2 0
BITMAP
C000
C000
6000
6000
3000
3000
1800
1800
0C00
0C00
0600
0600
0300
0300
0180
0180
00C0
00C0
ENDCHAR

STARTCHAR bracketright
ENCODING 93
SWIDTH 333 0
DWIDTH 7 0
BBX 7 21 -1 -3
BITMAP
1E
06
06
06
06
0C
0C
0C
0C
0C
18
18
18
18
18
18
30
30
30
30
F0
ENDCHAR

STARTCHAR asciicircum
ENCODING 94
SWIDTH 606 0
DWIDTH 15 0
BBX 11 11 2 7
BITMAP
0400
0E00
0E00
1B00
1B00
3180
3180
60C0
60C0
C060
C060
ENDCHAR

STARTCHAR underscore
ENCODING 95
SWIDTH 500 0
DWIDTH 12 0
BBX 12 1 0 -4
BITMAP
FFF0
ENDCHAR

STARTCHAR quoteleft
ENCODING 96
SWIDTH 278 0
DWIDTH 6 0
BBX 3 6 2 12
BITMAP
20
60
40
C0
C0
C0
ENDCHAR

STARTCHAR a
ENCODING 97
SWIDTH 444 0
DWIDTH 13 0
BBX 11 12 0 0
BITMAP
07E0
1860
3060
7060
60C0
60C0
C1C0
C380
C580
C9A0
F1C0
6180
ENDCHAR

STARTCHAR b
ENCODING 98
SWIDTH 463 0
DWIDTH 11 0
BBX 10 18 0 0
BITMAP
1800
3800
1800
1800
3000
3000
3180
33C0
64C0
68C0
70C0
60C0
C0C0
C180
C180
C300
E600
7800
ENDCHAR

STARTCHAR c
ENCODING 99
SWIDTH 407 0
DWIDTH 10 0
BBX 9 12 0 0
BITMAP
0780
1980
3100
6000
6000
4000
C000
C000
C000
C100
E600
7C00
ENDCHAR

STARTCHAR d
ENCODING 100
SWIDTH 500 0
DWIDTH 12 0
BBX 12 18 0 0
BITMAP
0030
0070
0030
0030
0030
0060
07E0
1860
3060
7060
60C0
60C0
C1C0
C380
C580
C9A0
F1C0
6180
ENDCHAR

STARTCHAR e
ENCODING 101
SWIDTH 389 0
DWIDTH 10 0
BBX 9 12 0 0
BITMAP
0700
1B80
3180
6100
6200
4C00
F000
C000
C000
C100
E600
7C00
ENDCHAR

STARTCHAR f
ENCODING 102
SWIDTH 278 0
DWIDTH 7 0
BBX 12 24 -3 -6
BITMAP
0070
00F0
0120
0300
0300
0300
0600
1FC0
0600
0600
0600
0C00
0C00
0C00
0C00
0C00
0C00
1800
1800
1800
1800
3000
E000
4000
ENDCHAR

STARTCHAR g
ENCODING 103
SWIDTH 500 0
DWIDTH 11 0
BBX 13 18 -2 -6
BITMAP
0780
18F8
3060
3060
3060
3040
1880
0F00
0600
0C00
0C00
1F00
63C0
C0E0
C060
C060
60C0
3F80
ENDCHAR

STARTCHAR h
ENCODING 104
SWIDTH 500 0
DWIDTH 13 0
BBX 11 18 0 0
BITMAP
1800
3800
1800
1800
1800
3000
30C0
31E0
3260
3460
6860
70C0
60C0
60C0
C180
C1A0
C1C0
C180
ENDCHAR

STARTCHAR i
ENCODING 105
SWIDTH 278 0
DWIDTH 6 0
BBX 5 18 0 0
BITMAP
18
18
00
00
00
00
30
70
B0
30
60
60
60
60
C8
D0
E0
C0
ENDCHAR

STARTCHAR j
ENCODING 106
SWIDTH 278 0
DWIDTH 5 0
BBX 9 24 -4 -6
BITMAP
0180
0180
0000
0000
0000
0000
0300
0700
0B00
0300
0600
0600
0600
0600
0C00
0C00
0C00
0C00
1800
1800
1800
1000
E000
C000
ENDCHAR

STARTCHAR k
ENCODING 107
SWIDTH 444 0
DWIDTH 11 0
BBX 11 18 0 0
BITMAP
1800
3800
1800
1800
3000
3000
30E0
31C0
6300
6400
6800
7C00
6C00
CE00
C600
C740
C380
C300
ENDCHAR

STARTCHAR l
ENCODING 108
SWIDTH 278 0
DWIDTH 6 0
BBX 5 18 0 0
BITMAP
18
38
18
18
30
30
30
30
60
60
60
60
60
C0
C8
D0
E0
C0
ENDCHAR

STARTCHAR m
ENCODING 109
SWIDTH 778 0
DWIDTH 20 0
BBX 19 12 0 0
BITMAP
30C180
71E3C0
B264C0
3468C0
3870C0
70C180
60C180
60C180
C18320
C18340
C18380
C18300
ENDCHAR

STARTCHAR n
ENCODING 110
SWIDTH 556 0
DWIDTH 13 0
BBX 11 12 0 0
BITMAP
30C0
71E0
B260
3460
3860
70C0
60C0
60C0
C180
C1A0
C1C0
C180
ENDCHAR

STARTCHAR o
ENCODING 111
SWIDTH 444 0
DWIDTH 11 0
BBX 10 12 0 0
BITMAP
0780
19C0
30C0
60C0
60C0
40C0
C080
C180
C180
C300
E600
7800
ENDCHAR

STARTCHAR p
ENCODING 112
SWIDTH 500 0
DWIDTH 13 0
BBX 11 18 0 -6
BITMAP
18C0
39E0
5A60
9C60
1860
3060
3060
30C0
30C0
6180
6300
7C00
6000
6000
C000
C000
C000
C000
ENDCHAR

STARTCHAR q
ENCODING 113
SWIDTH 463 0
DWIDTH 12 0
BBX 11 18 0 -6
BITMAP
07E0
1860
3060
7060
60C0
60C0
C1C0
C380
C580
C980
F180
6300
0300
0300
0300
0600
0600
0600
ENDCHAR

STARTCHAR r
ENCODING 114
SWIDTH 389 0
DWIDTH 9 0
BBX 9 12 0 0
BITMAP
3180
7380
B480
3800
3000
6000
6000
6000
C000
C000
C000
C000
ENDCHAR

STARTCHAR s
ENCODING 115
SWIDTH 389 0
DWIDTH 10 0
BBX 9 12 0 0
BITMAP
0F80
3180
6100
6000
7000
3E00
0F00
0300
0300
8200
C600
F800
ENDCHAR

STARTCHAR t
ENCODING 116
SWIDTH 333 0
DWIDTH 8 0
BBX 6 15 1 0
BITMAP
10
30
30
30
FC
60
60
60
60
C0
C0
C8
D0
E0
C0
ENDCHAR

STARTCHAR u
ENCODING 117
SWIDTH 556 0
DWIDTH 13 0
BBX 11 12 0 0
BITMAP
3060
F060
3060
3060
60C0
60C0
61C0
C380
C580
C9A0
F1C0
6180
ENDCHAR

STARTCHAR v
ENCODING 118
SWIDTH 500 0
DWIDTH 12 0
BBX 11 12 0 0
BITMAP
7C60
8CE0
8860
1060
3060
3060
6040
60C0
6080
6180
7200
3C00
ENDCHAR

STARTCHAR w
ENCODING 119
SWIDTH 722 0
DWIDTH 20 0
BBX 18 12 0 0
BITMAP
7C30C0
8C31C0
8830C0
1060C0
3060C0
3060C0
604080
60C180
60C100
61C300
726400
3C3800
ENDCHAR

STARTCHAR x
ENCODING 120
SWIDTH 500 0
DWIDTH 13 0
BBX 12 12 0 0
BITMAP
3030
7870
9890
0D00
0E00
0400
0600
0E00
1300
E320
C1C0
8180
ENDCHAR

STARTCHAR y
ENCODING 121
SWIDTH 500 0
DWIDTH 12 0
BBX 11 18 0 -6
BITMAP
3060
7060
B060
3060
30C0
20C0
61C0
6180
6380
6580
7B00
3300
0300
0600
0600
8C00
F800
E000
ENDCHAR

STARTCHAR z
ENCODING 122
SWIDTH 444 0
DWIDTH 12 0
BBX 11 12 0 0
BITMAP
7860
7FC0
4380
0100
0200
0400
0800
1000
2000
7840
FFC0
C3C0
ENDCHAR

STARTCHAR braceleft
ENCODING 123
SWIDTH 333 0
DWIDTH 8 0
BBX 7 21 1 -3
BITMAP
06
08
18
18
18
30
30
30
20
C0
60
60
60
60
60
C0
C0
C0
C0
40
30
ENDCHAR

STARTCHAR bar
ENCODING 124
SWIDTH 606 0
DWIDTH 15 0
BBX 2 18 6 0
BITMAP
C0
C0
C0
C0
C0
C0
C0
C0
C0
C0
C0
C0
C0
C0
C0
C0
C0
C0
ENDCHAR

STARTCHAR braceright
ENCODING 125
SWIDTH 333 0
DWIDTH 7 0
BBX 7 21 -1 -3
BITMAP
18
04
06
06
06
06
0C
0C
0C
06
08
18
18
18
18
30
30
30
30
20
C0
ENDCHAR

STARTCHAR asciitilde
ENCODING 126
SWIDTH 606 0
DWIDTH 15 0
BBX 13 4 1 6
BITMAP
3808
7F18
C7F0
80E0
ENDCHAR

STARTCHAR exclamdown
ENCODING 161
SWIDTH 333 0
DWIDTH 8 0
BBX 5 18 1 -6
BITMAP
18
18
18
00
30
30
30
30
20
60
60
60
60
40
C0
C0
C0
C0
ENDCHAR

STARTCHAR cent
ENCODING 162
SWIDTH 500 0
DWIDTH 12 0
BBX 11 16 1 -2
BITMAP
0080
0080
0FE0
3960
3120
6100
6200
C200
C400
C400
C440
C880
6B00
7C00
1000
1000
ENDCHAR

STARTCHAR sterling
ENCODING 163
SWIDTH 500 0
DWIDTH 12 0
BBX 13 18 -1 0
BITMAP
00F8
0318
0610
0600
0C00
0C00
0C00
0C00
7FC0
1800
1800
1800
1800
1800
1010
2010
7FF0
C7F0
ENDCHAR

STARTCHAR currency
ENCODING 164
SWIDTH 606 0
DWIDTH 12 0
BBX 13 13 0 2
BITMAP
C718
7FF0
3060
6030
4010
C018
C018
C018
4010
6030
3060
7FF0
C718
ENDCHAR

STARTCHAR yen
ENCODING 165
SWIDTH 500 0
DWIDTH 12 0
BBX 17 18 -1 0
BITMAP
700180
F80380
180600
1C0800
0C1000
0E2000
064000
1EF800
038000
030000
3FF000
030000
030000
060000
060000
060000
060000
1F8000
ENDCHAR

STARTCHAR brokenbar
ENCODING 166
SWIDTH 606 0
DWIDTH 15 0
BBX 2 18 6 0
BITMAP
C0
C0
C0
C0
C0
C0
C0
00
00
00
C0
C0
C0
C0
C0
C0
C0
C0
ENDCHAR

STARTCHAR section
ENCODING 167
SWIDTH 500 0
DWIDTH 13 0
BBX 12 23 0 -5
BITMAP
03F0
0C30
0820
1800
1800
1800
0C00
1F00
33C0
60E0
6060
6060
7060
3CC0
0F80
0300
0180
0180
0180
0180
8300
C600
F800
ENDCHAR

STARTCHAR dieresis
ENCODING 168
SWIDTH 333 0
DWIDTH 10 0
BBX 7 2 1 14
BITMAP
C6
C6
ENDCHAR

STARTCHAR copyright
ENCODING 169
SWIDTH 747 0
DWIDTH 21 0
BBX 18 18 1 0
BITMAP
03F000
0C0C00
100200
200100
41F880
461880
840840
8C0040
8C0040
8C0040
8C0040
860040
470880
41F080
200100
100200
0C0C00
03F000
ENDCHAR

STARTCHAR ordfeminine
ENCODING 170
SWIDTH 333 0
DWIDTH 10 0
BBX 8 10 1 8
BITMAP
1E
26
46
44
CC
DD
EE
4C
00
FE
ENDCHAR

STARTCHAR guillemotleft
ENCODING 171
SWIDTH 500 0
DWIDTH 12 0
BBX 11 8 0 3
BITMAP
0C60
18C0
3180
6300
C600
6300
3180
18C0
ENDCHAR

STARTCHAR logicalnot
ENCODING 172
SWIDTH 606 0
DWIDTH 15 0
BBX 13 7 1 3
BITMAP
FFF8
FFF8
0008
0008
0008
0008
0008
ENDCHAR

STARTCHAR hyphen
ENCODING 173
SWIDTH 333 0
DWIDTH 8 0
BBX 6 1 1 7
BITMAP
FC
ENDCHAR

STARTCHAR registered
ENCODING 174
SWIDTH 747 0
DWIDTH 21 0
BBX 18 18 1 0
BITMAP
03F000
0C0C00
100200
200100
4FE080
463080
863040
863040
866040
87C040
866040
863040
461880
4F0C80
200100
100200
0C0C00
03F000
ENDCHAR

STARTCHAR macron
ENCODING 175
SWIDTH 333 0
DWIDTH 9 0
BBX 7 1 1 14
BITMAP
FE
ENDCHAR

STARTCHAR degree
ENCODING 176
SWIDTH 400 0
DWIDTH 10 0
BBX 8 7 1 11
BITMAP
3C
66
C3
C3
C3
66
3C
ENDCHAR

STARTCHAR plusminus
ENCODING 177
SWIDTH 606 0
DWIDTH 15 0
BBX 12 11 1 2
BITMAP
0600
0600
0600
0600
FFF0
0600
0600
0600
0600
0000
FFF0
ENDCHAR

STARTCHAR twosuperior
ENCODING 178
SWIDTH 300 0
DWIDTH 7 0
BBX 7 11 0 7
BITMAP
3C
66
46
06
0C
08
10
20
40
FC
FC
ENDCHAR

STARTCHAR threesuperior
ENCODING 179
SWIDTH 300 0
DWIDTH 7 0
BBX 7 11 0 7
BITMAP
3C
66
46
0C
38
0C
06
06
86
CC
78
ENDCHAR

STARTCHAR acute
ENCODING 180
SWIDTH 333 0
DWIDTH 8 0
BBX 5 4 2 14
BITMAP
18
30
60
C0
ENDCHAR

STARTCHAR mu
ENCODING 181
SWIDTH 556 0
DWIDTH 13 0
BBX 13 18 -2 -6
BITMAP
0C18
3C18
0C18
0C18
1830
1830
1870
30E0
3160
3268
3C70
3860
6000
6000
6000
E000
E000
C000
ENDCHAR

STARTCHAR paragraph
ENCODING 182
SWIDTH 500 0
DWIDTH 14 0
BBX 14 23 1 -5
BITMAP
0FFC
3890
7090
71B0
E120
E120
E120
E120
E360
F240
7E40
0240
0240
06C0
0480
0480
0480
0480
0D80
0900
0900
0900
3FC0
ENDCHAR

STARTCHAR periodcentered
ENCODING 183
SWIDTH 250 0
DWIDTH 6 0
BBX 2 3 2 6
BITMAP
C0
C0
C0
ENDCHAR

STARTCHAR cedilla
ENCODING 184
SWIDTH 333 0
DWIDTH 8 0
BBX 4 5 2 -5
BITMAP
40
60
30
30
E0
ENDCHAR

STARTCHAR onesuperior
ENCODING 185
SWIDTH 300 0
DWIDTH 7 0
BBX 6 11 0 7
BITMAP
0C
1C
6C
08
18
18
10
30
30
30
FC
ENDCHAR

STARTCHAR ordmasculine
ENCODING 186
SWIDTH 333 0
DWIDTH 10 0
BBX 8 10 0 8
BITMAP
0E
33
23
63
63
62
66
38
00
FC
ENDCHAR

STARTCHAR guillemotright
ENCODING 187
SWIDTH 500 0
DWIDTH 12 0
BBX 11 8 0 3
BITMAP
6300
3180
18C0
0C60
18C0
3180
6300
C600
ENDCHAR

STARTCHAR onequarter
ENCODING 188
SWIDTH 750 0
DWIDTH 19 0
BBX 17 18 0 0
BITMAP
0C0300
1C0200
6C0600
080C00
180800
181800
103000
302080
306180
30C380
FC8500
018B00
031300
022200
064600
0C7F80
080600
180F00
ENDCHAR

STARTCHAR onehalf
ENCODING 189
SWIDTH 750 0
DWIDTH 19 0
BBX 18 18 0 0
BITMAP
0C0300
1C0200
6C0600
080C00
180800
181800
103000
302780
306CC0
30C8C0
FC80C0
018180
030100
020200
060400
0C0800
081F80
181F80
ENDCHAR

STARTCHAR threequarters
ENCODING 190
SWIDTH 750 0
DWIDTH 19 0
BBX 17 18 0 0
BITMAP
3C0300
660200
460600
0C0C00
380800
0C1800
063000
062080
866180
CCC380
788500
018B00
031300
022200
064600
0C7F80
080600
180F00
ENDCHAR

STARTCHAR questiondown
ENCODING 191
SWIDTH 500 0
DWIDTH 12 0
BBX 9 18 1 -6
BITMAP
0180
0180
0180
0000
0000
0200
0300
0300
0600
0C00
1800
3000
6000
C000
C000
C100
E300
7E00
ENDCHAR

STARTCHAR Agrave
ENCODING 192
SWIDTH 722 0
DWIDTH 17 0
BBX 17 18 -2 0
BITMAP
00C000
006000
003000
001800
000000
000000
001800
003800
006C00
00CC00
018C00
03FC00
060C00
040600
0C0600
180600
300600
FC1F80
ENDCHAR

STARTCHAR Aacute
ENCODING 193
SWIDTH 722 0
DWIDTH 17 0
BBX 17 18 -2 0
BITMAP
000C00
001800
003000
006000
000000
000000
001800
003800
006C00
00CC00
018C00
03FC00
060C00
040600
0C0600
180600
300600
FC1F80
ENDCHAR

STARTCHAR Acircumflex
ENCODING 194
SWIDTH 722 0
DWIDTH 17 0
BBX 17 18 -2 0
BITMAP
001000
003800
006C00
00C600
000000
000000
001800
003800
006C00
00CC00
018C00
03FC00
060C00
040600
0C0600
180600
300600
FC1F80
ENDCHAR

STARTCHAR Atilde
ENCODING 195
SWIDTH 722 0
DWIDTH 17 0
BBX 17 18 -2 0
BITMAP
00C400
012400
011800
000000
000000
000000
001800
003800
006C00
00CC00
018C00
03FC00
060C00
040600
0C0600
180600
300600
FC1F80
ENDCHAR

STARTCHAR Adieresis
ENCODING 196
SWIDTH 722 0
DWIDTH 17 0
BBX 17 18 -2 0
BITMAP
00C600
00C600
000000
000000
000000
000000
001800
003800
006C00
00CC00
018C00
03FC00
060C00
040600
0C0600
180600
300600
FC1F80
ENDCHAR

STARTCHAR Aring
ENCODING 197
SWIDTH 722 0
DWIDTH 17 0
BBX 17 18 -2 0
BITMAP
003800
004400
004400
004400
003800
000000
001800
003800
006C00
00CC00
018C00
03FC00
060C00
040600
0C0600
180600
300600
FC1F80
ENDCHAR

STARTCHAR AE
ENCODING 198
SWIDTH 941 0
DWIDTH 25 0
BBX 24 18 -1 0
BITMAP
007FFF
000983
001981
001181
002300
006300
004300
008300
0183FC
010600
03FE00
060600
040600
080C00
180C04
100C04
300C0C
F83FFC
ENDCHAR

STARTCHAR Ccedilla
ENCODING 199
SWIDTH 667 0
DWIDTH 15 0
BBX 15 23 0 -5
BITMAP
01FE
0E0E
1804
3004
3000
6000
6000
6000
C000
C000
C000
C000
C000
C000
E000
600C
7838
1FE0
0200
0300
0180
0180
0700
ENDCHAR

STARTCHAR Egrave
ENCODING 200
SWIDTH 611 0
DWIDTH 15 0
BBX 14 18 0 0
BITMAP
0180
00C0
0060
0030
0000
0000
1FFC
0C0C
0C04
1804
1800
1FC0
1800
3000
3010
3010
3030
FFF0
ENDCHAR

STARTCHAR Eacute
ENCODING 201
SWIDTH 611 0
DWIDTH 15 0
BBX 14 18 0 0
BITMAP
0030
0060
00C0
0180
0000
0000
1FFC
0C0C
0C04
1804
1800
1FC0
1800
3000
3010
3010
3030
FFF0
ENDCHAR

STARTCHAR Ecircumflex
ENCODING 202
SWIDTH 611 0
DWIDTH 15 0
BBX 14 18 0 0
BITMAP
0080
01C0
0360
0630
0000
0000
1FFC
0C0C
0C04
1804
1800
1FC0
1800
3000
3010
3010
3030
FFF0
ENDCHAR

STARTCHAR Edieresis
ENCODING 203
SWIDTH 611 0
DWIDTH 15 0
BBX 14 18 0 0
BITMAP
0318
0318
0000
0000
0000
0000
1FFC
0C0C
0C04
1804
1800
1FC0
1800
3000
3010
3010
3030
FFF0
ENDCHAR

STARTCHAR Igrave
ENCODING 204
SWIDTH 333 0
DWIDTH 10 0
BBX 8 18 0 0
BITMAP
18
0C
06
03
00
00
3F
0C
0C
0C
18
18
18
18
30
30
30
FC
ENDCHAR

STARTCHAR Iacute
ENCODING 205
SWIDTH 333 0
DWIDTH 10 0
BBX 8 18 0 0
BITMAP
03
06
0C
18
00
00
3F
0C
0C
0C
18
18
18
18
30
30
30
FC
ENDCHAR

STARTCHAR Icircumflex
ENCODING 206
SWIDTH 333 0
DWIDTH 10 0
BBX 9 18 0 0
BITMAP
0400
0E00
1B00
3180
0000
0000
3F00
0C00
0C00
0C00
1800
1800
1800
1800
3000
3000
3000
FC00
ENDCHAR

STARTCHAR Idieresis
ENCODING 207
SWIDTH 333 0
DWIDTH 10 0
BBX 9 18 0 0
BITMAP
3180
3180
0000
0000
0000
0000
3F00
0C00
0C00
0C00
1800
1800
1800
1800
3000
3000
3000
FC00
ENDCHAR

STARTCHAR Eth
ENCODING 208
SWIDTH 778 0
DWIDTH 20 0
BBX 19 18 -1 0
BITMAP
1FFF00
0603C0
0600C0
0600E0
0C0060
0C0060
0C0060
0C0060
7F8060
180060
1800C0
1800C0
1800C0
300180
300180
300300
300E00
FFF000
ENDCHAR

STARTCHAR Ntilde
ENCODING 209
SWIDTH 778 0
DWIDTH 21 0
BBX 19 18 0 0
BITMAP
006200
009200
008C00
000000
000000
000000
3E03E0
0F0080
0F8080
1BC180
11E100
10E100
107100
107B00
303E00
201E00
200E00
F80600
ENDCHAR

STARTCHAR Ograve
ENCODING 210
SWIDTH 778 0
DWIDTH 18 0
BBX 16 18 1 0
BITMAP
0600
0300
0180
00C0
0000
0000
03F8
1C1E
3006
6007
E003
C003
C003
C006
E006
600C
7838
1FC0
ENDCHAR

STARTCHAR Oacute
ENCODING 211
SWIDTH 778 0
DWIDTH 18 0
BBX 16 18 1 0
BITMAP
0018
0030
0060
00C0
0000
0000
03F8
1C1E
3006
6007
E003
C003
C003
C006
E006
600C
7838
1FC0
ENDCHAR

STARTCHAR Ocircumflex
ENCODING 212
SWIDTH 778 0
DWIDTH 18 0
BBX 16 18 1 0
BITMAP
0040
00E0
01B0
0318
0000
0000
03F8
1C1E
3006
6007
E003
C003
C003
C006
E006
600C
7838
1FC0
ENDCHAR

STARTCHAR Otilde
ENCODING 213
SWIDTH 778 0
DWIDTH 18 0
BBX 16 18 0 0
BITMAP
0188
0248
0230
0000
0000
0000
03F8
1C1E
3006
6007
E003
C003
C003
C006
E006
600C
7838
1FC0
ENDCHAR

STARTCHAR Odieresis
ENCODING 214
SWIDTH 778 0
DWIDTH 18 0
BBX 16 18 1 0
BITMAP
0318
0318
0000
0000
0000
0000
03F8
1C1E
3006
6007
E003
C003
C003
C006
E006
600C
7838
1FC0
ENDCHAR

STARTCHAR multiply
ENCODING 215
SWIDTH 606 0
DWIDTH 15 0
BBX 10 11 2 2
BITMAP
8040
C0C0
6180
3300
1E00
0C00
1E00
3300
6180
C0C0
8040
ENDCHAR

STARTCHAR Oslash
ENCODING 216
SWIDTH 778 0
DWIDTH 18 0
BBX 19 18 -1 0
BITMAP
00FE60
0707C0
0C0180
1803C0
1806C0
300CC0
3018C0
3030C0
6060C0
60C0C0
618180
630180
660180
6C0300
780300
300600
7C1C00
CFE000
ENDCHAR

STARTCHAR Ugrave
ENCODING 217
SWIDTH 778 0
DWIDTH 20 0
BBX 17 18 1 0
BITMAP
030000
018000
00C000
006000
000000
000000
FC1F80
300600
300600
600C00
600C00
600C00
C00C00
C01800
C03800
C05800
E19800
7E1E00
ENDCHAR

STARTCHAR Uacute
ENCODING 218
SWIDTH 778 0
DWIDTH 20 0
BBX 16 18 1 0
BITMAP
0030
0060
00C0
0180
0000
0000
FC1F
3006
3006
600C
600C
600C
C00C
C018
C038
C058
E198
7E1E
ENDCHAR

STARTCHAR Ucircumflex
ENCODING 219
SWIDTH 778 0
DWIDTH 20 0
BBX 16 18 1 0
BITMAP
0080
01C0
0360
0630
0000
0000
FC1F
3006
3006
600C
600C
600C
C00C
C018
C038
C058
E198
7E1E
ENDCHAR

STARTCHAR Udieresis
ENCODING 220
SWIDTH 778 0
DWIDTH 20 0
BBX 16 18 1 0
BITMAP
0318
0318
0000
0000
0000
0000
FC1F
3006
3006
600C
600C
600C
C00C
C018
C038
C058
E198
7E1E
ENDCHAR

STARTCHAR Yacute
ENCODING 221
SWIDTH 667 0
DWIDTH 15 0
BBX 12 18 1 0
BITMAP
0060
00C0
0180
0300
0000
6030
F070
38C0
1C80
0D00
0700
0600
0600
0600
0400
0C00
0C00
1E00
ENDCHAR

STARTCHAR Thorn
ENCODING 222
SWIDTH 611 0
DWIDTH 14 0
BBX 14 18 -1 0
BITMAP
1F80
0600
0600
0600
0FF8
0C1C
0C0C
0C0C
0C0C
180C
1818
1818
1C30
37C0
3000
3000
3000
FC00
ENDCHAR

STARTCHAR germandbls
ENCODING 223
SWIDTH 500 0
DWIDTH 12 0
BBX 15 24 -3 -6
BITMAP
007C
008E
0106
0306
0306
030C
0608
1FD0
0620
0620
0630
0C38
0C1C
0C0C
0D0C
0D08
0D90
19E0
1800
1800
1800
1000
E000
4000
ENDCHAR

STARTCHAR agrave
ENCODING 224
SWIDTH 444 0
DWIDTH 13 0
BBX 11 18 0 0
BITMAP
0600
0300
0180
00C0
0000
0000
07E0
1860
3060
7060
60C0
60C0
C1C0
C380
C580
C9A0
F1C0
6180
ENDCHAR

STARTCHAR aacute
ENCODING 225
SWIDTH 444 0
DWIDTH 13 0
BBX 11 18 0 0
BITMAP
0060
00C0
0180
0300
0000
0000
07E0
1860
3060
7060
60C0
60C0
C1C0
C380
C580
C9A0
F1C0
6180
ENDCHAR

STARTCHAR acircumflex
ENCODING 226
SWIDTH 444 0
DWIDTH 13 0
BBX 11 18 0 0
BITMAP
0100
0380
06C0
0C60
0000
0000
07E0
1860
3060
7060
60C0
60C0
C1C0
C380
C580
C9A0
F1C0
6180
ENDCHAR

STARTCHAR atilde
ENCODING 227
SWIDTH 444 0
DWIDTH 13 0
BBX 11 16 0 0
BITMAP
0E40
1380
0000
0000
07E0
1860
3060
7060
60C0
60C0
C1C0
C380
C580
C9A0
F1C0
6180
ENDCHAR

STARTCHAR adieresis
ENCODING 228
SWIDTH 444 0
DWIDTH 13 0
BBX 11 16 0 0
BITMAP
0C60
0C60
0000
0000
07E0
1860
3060
7060
60C0
60C0
C1C0
C380
C580
C9A0
F1C0
6180
ENDCHAR

STARTCHAR aring
ENCODING 229
SWIDTH 444 0
DWIDTH 13 0
BBX 11 18 0 0
BITMAP
01C0
0220
0220
0220
01C0
0000
07E0
1860
3060
7060
60C0
60C0
C1C0
C380
C580
C9A0
F1C0
6180
ENDCHAR

STARTCHAR ae
ENCODING 230
SWIDTH 638 0
DWIDTH 17 0
BBX 16 12 0 0
BITMAP
0F0E
19B7
10E3
00C3
00C6
1FF8
7180
C180
C180
C382
EDCC
70F8
ENDCHAR

STARTCHAR ccedilla
ENCODING 231
SWIDTH 407 0
DWIDTH 10 0
BBX 9 17 0 -5
BITMAP
0780
1980
3100
6000
6000
4000
C000
C000
C000
C100
E600
7C00
1000
1800
0C00
0C00
3800
ENDCHAR

STARTCHAR egrave
ENCODING 232
SWIDTH 389 0
DWIDTH 10 0
BBX 9 18 0 0
BITMAP
1800
0C00
0600
0300
0000
0000
0700
1B80
3180
6100
6200
4C00
F000
C000
C000
C100
E600
7C00
ENDCHAR

STARTCHAR eacute
ENCODING 233
SWIDTH 389 0
DWIDTH 10 0
BBX 9 18 0 0
BITMAP
0180
0300
0600
0C00
0000
0000
0700
1B80
3180
6100
6200
4C00
F000
C000
C000
C100
E600
7C00
ENDCHAR

STARTCHAR ecircumflex
ENCODING 234
SWIDTH 389 0
DWIDTH 10 0
BBX 9 18 0 0
BITMAP
0400
0E00
1B00
3180
0000
0000
0700
1B80
3180
6100
6200
4C00
F000
C000
C000
C100
E600
7C00
ENDCHAR

STARTCHAR edieresis
ENCODING 235
SWIDTH 389 0
DWIDTH 10 0
BBX 9 16 0 0
BITMAP
3180
3180
0000
0000
0700
1B80
3180
6100
6200
4C00
F000
C000
C000
C100
E600
7C00
ENDCHAR

STARTCHAR igrave
ENCODING 236
SWIDTH 278 0
DWIDTH 6 0
BBX 5 18 0 0
BITMAP
C0
60
30
18
00
00
30
70
B0
30
60
60
60
60
C8
D0
E0
C0
ENDCHAR

STARTCHAR iacute
ENCODING 237
SWIDTH 278 0
DWIDTH 6 0
BBX 6 18 0 0
BITMAP
0C
18
30
60
00
00
30
70
B0
30
60
60
60
60
C8
D0
E0
C0
ENDCHAR

STARTCHAR icircumflex
ENCODING 238
SWIDTH 278 0
DWIDTH 6 0
BBX 7 18 0 0
BITMAP
10
38
6C
C6
00
00
30
70
B0
30
60
60
60
60
C8
D0
E0
C0
ENDCHAR

STARTCHAR idieresis
ENCODING 239
SWIDTH 278 0
DWIDTH 6 0
BBX 7 16 -1 0
BITMAP
C6
C6
00
00
18
38
58
18
30
30
30
30
64
68
70
60
ENDCHAR

STARTCHAR eth
ENCODING 240
SWIDTH 444 0
DWIDTH 11 0
BBX 11 18 0 0
BITMAP
1E60
3380
0380
0C80
00C0
00C0
07C0
19C0
30C0
60C0
60C0
40C0
C080
C180
C180
C300
E600
7800
ENDCHAR

STARTCHAR ntilde
ENCODING 241
SWIDTH 556 0
DWIDTH 13 0
BBX 11 16 0 0
BITMAP
0E40
1380
0000
0000
30C0
71E0
B260
3460
3860
70C0
60C0
60C0
C180
C1A0
C1C0
C180
ENDCHAR

STARTCHAR ograve
ENCODING 242
SWIDTH 444 0
DWIDTH 11 0
BBX 10 18 0 0
BITMAP
1800
0C00
0600
0300
0000
0000
0780
19C0
30C0
60C0
60C0
40C0
C080
C180
C180
C300
E600
7800
ENDCHAR

STARTCHAR oacute
ENCODING 243
SWIDTH 444 0
DWIDTH 11 0
BBX 10 18 0 0
BITMAP
0180
0300
0600
0C00
0000
0000
0780
19C0
30C0
60C0
60C0
40C0
C080
C180
C180
C300
E600
7800
ENDCHAR

STARTCHAR ocircumflex
ENCODING 244
SWIDTH 444 0
DWIDTH 11 0
BBX 10 18 0 0
BITMAP
0200
0700
0D80
18C0
0000
0000
0780
19C0
30C0
60C0
60C0
40C0
C080
C180
C180
C300
E600
7800
ENDCHAR

STARTCHAR otilde
ENCODING 245
SWIDTH 444 0
DWIDTH 11 0
BBX 10 16 0 0
BITMAP
0E40
1380
0000
0000
0780
19C0
30C0
60C0
60C0
40C0
C080
C180
C180
C300
E600
7800
ENDCHAR

STARTCHAR odieresis
ENCODING 246
SWIDTH 444 0
DWIDTH 11 0
BBX 10 16 0 0
BITMAP
18C0
18C0
0000
0000
0780
19C0
30C0
60C0
60C0
40C0
C080
C180
C180
C300
E600
7800
ENDCHAR

STARTCHAR divide
ENCODING 247
SWIDTH 606 0
DWIDTH 15 0
BBX 12 11 1 2
BITMAP
0600
0600
0600
0000
0000
FFF0
0000
0000
0600
0600
0600
ENDCHAR

STARTCHAR oslash
ENCODING 248
SWIDTH 444 0
DWIDTH 11 0
BBX 10 14 0 -1
BITMAP
0080
0780
19C0
32C0
62C0
64C0
44C0
C880
C980
D180
D300
E600
7800
4000
ENDCHAR

STARTCHAR ugrave
ENCODING 249
SWIDTH 556 0
DWIDTH 13 0
BBX 11 18 0 0
BITMAP
1800
0C00
0600
0300
0000
0000
3060
F060
3060
3060
60C0
60C0
61C0
C380
C580
C9A0
F1C0
6180
ENDCHAR

STARTCHAR uacute
ENCODING 250
SWIDTH 556 0
DWIDTH 13 0
BBX 11 18 0 0
BITMAP
00C0
0180
0300
0600
0000
0000
3060
F060
3060
3060
60C0
60C0
61C0
C380
C580
C9A0
F1C0
6180
ENDCHAR

STARTCHAR ucircumflex
ENCODING 251
SWIDTH 556 0
DWIDTH 13 0
BBX 11 18 0 0
BITMAP
0200
0700
0D80
18C0
0000
0000
3060
F060
3060
3060
60C0
60C0
61C0
C380
C580
C9A0
F1C0
6180
ENDCHAR

STARTCHAR udieresis
ENCODING 252
SWIDTH 556 0
DWIDTH 13 0
BBX 11 16 0 0
BITMAP
18C0
18C0
0000
0000
3060
F060
3060
3060
60C0
60C0
61C0
C380
C580
C9A0
F1C0
6180
ENDCHAR

STARTCHAR yacute
ENCODING 253
SWIDTH 500 0
DWIDTH 12 0
BBX 11 24 0 -6
BITMAP
0060
00C0
0180
0300
0000
0000
3060
7060
B060
3060
30C0
20C0
61C0
6180
6380
6580
7B00
3300
0300
0600
0600
8C00
F800
E000
ENDCHAR

STARTCHAR thorn
ENCODING 254
SWIDTH 500 0
DWIDTH 13 0
BBX 11 24 -1 -6
BITMAP
0C00
1C00
0C00
0C00
0C00
1800
18C0
19E0
1A60
1C60
3860
3060
3060
30C0
30C0
6180
6300
7C00
6000
6000
C000
C000
C000
C000
ENDCHAR

STARTCHAR ydieresis
ENCODING 255
SWIDTH 500 0
DWIDTH 12 0
BBX 11 22 0 -6
BITMAP
18C0
18C0
0000
0000
3060
7060
B060
3060
30C0
20C0
61C0
6180
6380
6580
7B00
3300
0300
0600
0600
8C00
F800
E000
ENDCHAR
ENDFONT
